<?xml version="1.0" encoding="utf-8"?>
<!-- Generator: Adobe Illustrator 27.4.1, SVG Export Plug-In . SVG Version: 6.00 Build 0)  -->
<svg version="1.0" id="Layer_1" xmlns="http://www.w3.org/2000/svg" xmlns:xlink="http://www.w3.org/1999/xlink" x="0px" y="0px"
	 viewBox="0 0 300 300" style="enable-background:new 0 0 300 300;" xml:space="preserve">
<g id="Racism">
	<path d="M62.5,146c-18.8,0-34.1-15.3-34.1-34.1s15.3-34.1,34.1-34.1s34.1,15.3,34.1,34.1S81.3,146,62.5,146z M62.5,87.8
		c-13.3,0-24.1,10.8-24.1,24.1S49.2,136,62.5,136s24.1-10.8,24.1-24.1S75.8,87.8,62.5,87.8z"/>
	<path d="M235.6,146c-18.8,0-34.1-15.3-34.1-34.1s15.3-34.1,34.1-34.1s34.1,15.3,34.1,34.1S254.4,146,235.6,146z M235.6,87.8
		c-13.3,0-24.1,10.8-24.1,24.1s10.8,24.1,24.1,24.1c13.3,0,24.1-10.8,24.1-24.1S248.9,87.8,235.6,87.8z"/>
	<path d="M148.4,105.3c-18.8,0-34.1-15.3-34.1-34.1s15.3-34.1,34.1-34.1c18.8,0,34.1,15.3,34.1,34.1S167.2,105.3,148.4,105.3z
		 M148.4,47.1c-13.3,0-24.1,10.8-24.1,24.1c0,13.3,10.8,24.1,24.1,24.1c13.3,0,24.1-10.8,24.1-24.1
		C172.5,57.9,161.7,47.1,148.4,47.1z"/>
	<g>
		<g>
			<circle cx="149.3" cy="177.2" r="31.5"/>
		</g>
		<path d="M195.3,266.9c1.5-4.7,2.3-9.7,2.3-14.8c0-26.8-21.7-48.5-48.5-48.5s-48.5,21.7-48.5,48.5c0,5.2,0.8,10.2,2.3,14.8H195.3z"
			/>
	</g>
	<path d="M280,194.5c-2.4,0-4.6-1.8-4.9-4.2c-2.8-18-9.9-30.6-21.2-37.7c-19.3-12-45.1-4.1-45.3-4c-1.3,0.4-2.7,0.3-4-0.4
		c-1.2-0.7-2.1-1.8-2.4-3.1c-0.4-1.6-10.6-39.8-51.7-39.8c-41.5,0-55.5,39.8-56.1,41.5c-0.9,2.5-3.5,3.9-6.1,3.2
		c-20.6-5.7-36.9-4.4-48.4,3.8c-16.7,11.9-18.2,35-18.2,35.2c-0.2,2.8-2.5,4.9-5.3,4.7c-2.8-0.2-4.9-2.5-4.7-5.3
		c0.1-1.1,1.7-28,22.3-42.8c13.3-9.5,31-11.7,52.7-6.5c2.1-4.6,6-12.1,12.4-19.7c13.4-15.8,31.2-24.2,51.4-24.2
		c25.6,0,41,12.9,49.4,23.7c5.5,7.2,8.8,14.3,10.5,18.9c9.4-2.1,30.8-4.9,48.8,6.3c14,8.6,22.7,23.7,25.9,44.7
		c0.4,2.7-1.5,5.3-4.2,5.7C280.5,194.5,280.2,194.5,280,194.5z"/>
</g>
<g id="health">
</g>
<g id="Counselling">
</g>
<g id="Policing">
</g>
<g id="Tool_x5F_Kit">
</g>
<g id="Layer_6">
</g>
<g id="Strategic_x5F_Plan">
</g>
</svg>
