<?xml version="1.0" encoding="utf-8"?>
<!-- Generator: Adobe Illustrator 27.4.1, SVG Export Plug-In . SVG Version: 6.00 Build 0)  -->
<svg version="1.0" id="Layer_1" xmlns="http://www.w3.org/2000/svg" xmlns:xlink="http://www.w3.org/1999/xlink" x="0px" y="0px"
	 viewBox="0 0 300 300" style="enable-background:new 0 0 300 300;" xml:space="preserve">
<g id="Racism">
</g>
<g id="health">
</g>
<g id="Counselling">
	<g>
		<path d="M68.7,199.7C44.1,199.7,24,179.6,24,155c0-24.6,20.1-44.7,44.7-44.7c24.6,0,44.7,20.1,44.7,44.7
			C113.4,179.6,93.3,199.7,68.7,199.7z M68.7,120.3C49.6,120.3,34,135.9,34,155s15.6,34.7,34.7,34.7c19.1,0,34.7-15.6,34.7-34.7
			S87.8,120.3,68.7,120.3z"/>
		<path d="M60.3,285.2c-11.3,0-22-0.6-30.9-7.1c-13.3-9.5-20.9-23.4-20.9-38.3c0-27.8,27.1-50.4,60.3-50.4
			c33.2,0,60.2,22.6,60.2,50.4c0,14.6-7.5,28.4-20.6,37.9c-10.2,7.5-22.7,7.4-35.9,7.4c-2.7,0-5.4,0-8.1,0
			C63,285.2,61.7,285.2,60.3,285.2z M68.8,199.5c-27.7,0-50.3,18.1-50.3,40.4c0,11.6,6.1,22.5,16.7,30.1c7.4,5.3,17.5,5.3,29.2,5.2
			c2.7,0,5.5,0,8.2,0c12,0.1,22.4,0.1,30-5.4c10.5-7.6,16.5-18.5,16.5-29.9C119,217.6,96.5,199.5,68.8,199.5z"/>
		<path d="M164.1,156c-0.4,0-0.7,0-1.1-0.1c-1.6-0.4-2.9-1.5-3.6-3L149,127.2h-30.9c-6.4,0-11.6-5.2-11.6-11.6V31.7
			c0-6.4,5.2-11.6,11.6-11.6h160.2c6.4,0,11.6,5.2,11.6,11.6v83.8c0.1,3-1.1,5.9-3.2,8.2c-2.2,2.2-5.2,3.5-8.3,3.5h-81.8l-29.1,27.4
			C166.6,155.5,165.4,156,164.1,156z M118.1,30.1c-0.8,0-1.6,0.8-1.6,1.6v83.9c0,0.8,0.8,1.6,1.6,1.6h34.3c2,0,3.9,1.2,4.6,3.1
			l8.9,22l25.2-23.8c0.9-0.9,2.2-1.4,3.4-1.4h83.8c0.4,0,0.8-0.2,1.1-0.5c0.2-0.2,0.4-0.5,0.4-1c0,0,0-0.1,0-0.1V31.7
			c0-0.8-0.8-1.6-1.6-1.6H118.1z"/>
		<path d="M238.8,80h-78.4c-2.8,0-5-2.2-5-5s2.2-5,5-5h78.4c2.8,0,5,2.2,5,5S241.6,80,238.8,80z"/>
	</g>
</g>
<g id="Policing">
</g>
<g id="Tool_x5F_Kit">
</g>
<g id="Layer_6">
</g>
<g id="Strategic_x5F_Plan">
</g>
</svg>
