<?xml version="1.0" encoding="utf-8"?>
<!-- Generator: Adobe Illustrator 27.4.1, SVG Export Plug-In . SVG Version: 6.00 Build 0)  -->
<svg version="1.0" id="Layer_1" xmlns="http://www.w3.org/2000/svg" xmlns:xlink="http://www.w3.org/1999/xlink" x="0px" y="0px"
	 viewBox="0 0 300 300" style="enable-background:new 0 0 300 300;" xml:space="preserve">
<g id="Racism">
</g>
<g>
	<path d="M144.6,266.5c-1.2,0-2.3-0.2-3.5-0.5c-26.9-7.7-54.4-28.4-81.7-61.5c-20.2-24.4-32.5-46.3-33-47.3
		c-1.3-2.3-0.5-5.3,1.8-6.6c2.3-1.3,5.3-0.5,6.6,1.8c0.5,0.9,49.2,87.1,108.8,104.1c0.6,0.1,1.3,0.1,1.8,0
		c57.6-16.3,99.7-72.9,107.5-84.1c1.6-2.2,4.6-2.7,6.8-1.2c2.2,1.6,2.7,4.6,1.2,6.8C214.3,244.6,158.7,263,148.1,266
		C146.9,266.3,145.8,266.5,144.6,266.5z"/>
	<path d="M272.4,145.9c-0.3,0-0.6,0-0.9-0.1c-2.6-0.5-4.4-3-3.9-5.6l0,0c0-0.2,2.8-16.1,0-34.1c-3.6-23.5-14.5-39.4-32.4-47.4
		c-38.6-17.4-71.5,16.9-77.8,24.1c-1.3,1.6-3.2,2.4-5.2,2.4c-2.1-0.1-4.1-1.1-5.4-2.8c-5.8-8.1-27.3-34.4-61.6-30.1
		C67,54.6,52.4,62.8,41.6,76.9c-8.4,11.1-14.2,25.5-15.6,39.8c-0.3,2.6-2.6,4.6-5.3,4.4c-2.6-0.3-4.6-2.6-4.4-5.3
		c1.6-16.1,8-32.4,17.5-44.8C46.2,55,63.5,45.2,84,42.6c36.1-4.6,59.7,19.9,68.5,31.2c11-11.4,45.7-42.4,86.8-23.9
		c20.8,9.3,33.9,28.4,38,55c3,19.6,0,36.4-0.1,37C276.7,144.3,274.7,145.9,272.4,145.9z"/>
	<path d="M144.7,195.4c-1.2,0-2.3-0.4-3.3-1.3l-51.3-46.8c-1.9-1.8-2.1-4.8-0.3-6.9c1.8-1.9,4.8-2.1,6.9-0.3l47.9,43.7L257,73.8
		c1.9-1.8,4.9-1.8,6.9,0.1c1.8,1.9,1.8,4.9-0.1,6.9L148.1,194.1C147.1,195,145.9,195.4,144.7,195.4z"/>
</g>
<g id="Counselling">
</g>
<g id="Policing">
</g>
<g id="Tool_x5F_Kit">
</g>
<g id="Layer_6">
</g>
<g id="Strategic_x5F_Plan">
</g>
</svg>
