<?xml version="1.0" encoding="utf-8"?>
<!-- Generator: Adobe Illustrator 27.4.1, SVG Export Plug-In . SVG Version: 6.00 Build 0)  -->
<svg version="1.0" id="Layer_1" xmlns="http://www.w3.org/2000/svg" xmlns:xlink="http://www.w3.org/1999/xlink" x="0px" y="0px"
	 viewBox="0 0 300 300" style="enable-background:new 0 0 300 300;" xml:space="preserve">
<g id="Racism">
</g>
<g id="health">
</g>
<g id="Counselling">
</g>
<g>
	<path d="M226.9,290.5c-33.7,0-61.2-27.5-61.2-61.2s27.5-61.2,61.2-61.2c33.7,0,61.2,27.5,61.2,61.2S260.6,290.5,226.9,290.5z
		 M226.9,178.1c-28.2,0-51.2,23-51.2,51.2s23,51.2,51.2,51.2s51.2-23,51.2-51.2S255.1,178.1,226.9,178.1z"/>
	<path d="M225.4,262.6c-0.6,0-1.2-0.1-1.7-0.3c-27.4-10.1-27.1-40.4-23.1-55c0.4-1.6,1.6-2.8,3.1-3.4l21.2-7.8
		c1.1-0.4,2.2-0.4,3.3,0l23.3,7.9c1.9,0.6,3.2,2.4,3.4,4.4c1.4,20.9-2.8,36.3-12.6,45.9c-7.6,7.4-15.6,8.3-16.5,8.4
		C225.7,262.6,225.5,262.6,225.4,262.6z M209.7,212.3c-0.6,3.3-1.5,9.5-0.7,16.3c1.4,11.8,7.1,19.8,16.9,23.8
		c4.2-0.9,20.3-6.7,19.1-40.1l-18.4-6.2L209.7,212.3z"/>
	<path d="M188.7,275.3H61.4c-1.4,0-2.8-0.6-3.8-1.7l-39.4-45c-0.8-0.9-1.2-2.1-1.2-3.3V24.8c0-2.8,2.2-5,5-5
		c63.4,0,183.9-0.1,189.2-0.3c0.1,0,0.3,0,0.4,0c2.8,0,5,2.2,5,5v149.9c0,2.8-2.2,5-5,5s-5-2.2-5-5V29.6c-0.9,0-2,0-3.1,0
		c-5.2,0-12.6,0-21.5,0.1c-17.8,0-41.5,0.1-65.2,0.1c-38.2,0-76.4,0.1-89.8,0.1v193.6l36.7,41.9h125c2.8,0,5,2.2,5,5
		S191.5,275.3,188.7,275.3z"/>
	<path d="M61.1,274.2c-2.8,0-5-2.2-5-5v-37H23.6c-2.8,0-5-2.2-5-5s2.2-5,5-5h37.5c2.8,0,5,2.2,5,5v42
		C66.1,272,63.9,274.2,61.1,274.2z"/>
	<path d="M175.3,73.8H59.8c-8.9,0-16.2-7.3-16.2-16.2s7.3-16.2,16.2-16.2h115.6c8.9,0,16.2,7.3,16.2,16.2S184.3,73.8,175.3,73.8z
		 M59.8,51.4c-3.4,0-6.2,2.8-6.2,6.2s2.8,6.2,6.2,6.2h115.5c3.5,0,6.3-2.8,6.3-6.2c0-3.4-2.8-6.2-6.2-6.2H59.8z"/>
	<path d="M191,97.3H99.8c-2.8,0-5-2.2-5-5s2.2-5,5-5H191c2.8,0,5,2.2,5,5S193.8,97.3,191,97.3z"/>
	<path d="M165.5,187.4h-125c-2.8,0-5-2.2-5-5s2.2-5,5-5h125c2.8,0,5,2.2,5,5S168.3,187.4,165.5,187.4z"/>
	<path d="M192,119.4H99.9c-2.8,0-5-2.2-5-5s2.2-5,5-5H192c2.8,0,5,2.2,5,5S194.8,119.4,192,119.4z"/>
	<path d="M192,140.7H99.9c-2.8,0-5-2.2-5-5s2.2-5,5-5H192c2.8,0,5,2.2,5,5S194.8,140.7,192,140.7z"/>
	<path d="M149.5,163.5h-35.6c-2.8,0-5-2.2-5-5s2.2-5,5-5h35.6c2.8,0,5,2.2,5,5S152.3,163.5,149.5,163.5z"/>
	<path d="M76.1,163.5H40.5c-2.8,0-5-2.2-5-5s2.2-5,5-5h35.6c2.8,0,5,2.2,5,5S78.9,163.5,76.1,163.5z"/>
	<path d="M145.8,207.8H40.5c-2.8,0-5-2.2-5-5s2.2-5,5-5h105.3c2.8,0,5,2.2,5,5S148.6,207.8,145.8,207.8z"/>
	<path d="M149.8,230.9H85.5c-2.8,0-5-2.2-5-5s2.2-5,5-5h64.3c2.8,0,5,2.2,5,5S152.6,230.9,149.8,230.9z"/>
	<path d="M78,149.5H45.1c-6.3,0-11.5-5.2-11.5-11.5V94.8c0-6.3,5.2-11.5,11.5-11.5H78c6.3,0,11.5,5.2,11.5,11.5V138
		C89.5,144.3,84.3,149.5,78,149.5z M45.1,93.3c-0.8,0-1.5,0.7-1.5,1.5V138c0,0.8,0.7,1.5,1.5,1.5H78c0.8,0,1.5-0.7,1.5-1.5V94.8
		c0-0.8-0.7-1.5-1.5-1.5H45.1z"/>
</g>
<g id="Tool_x5F_Kit">
</g>
<g id="Layer_6">
</g>
<g id="Strategic_x5F_Plan">
</g>
</svg>
