<?xml version="1.0" encoding="utf-8"?>
<!-- Generator: Adobe Illustrator 27.2.0, SVG Export Plug-In . SVG Version: 6.00 Build 0)  -->
<svg version="1.1" id="Layer_1" xmlns="http://www.w3.org/2000/svg" xmlns:xlink="http://www.w3.org/1999/xlink" x="0px" y="0px"
	 viewBox="0 0 300 98.5" style="enable-background:new 0 0 300 98.5;" xml:space="preserve">
<style type="text/css">
	.st0{enable-background:new    ;}
	.st1{fill:#FFFFFF;}
</style>
<g>
	<g class="st0">
		<path class="st1" d="M58.4,42.5h-15l-2.8,6.9H30.4L46,14h9.9l15.7,35.4H61.2L58.4,42.5z M55.5,35.1l-4.6-11.3l-4.6,11.3H55.5z"/>
		<path class="st1" d="M106.4,34.3c1.1,1.5,1.7,3.3,1.7,5.4c0,3.1-1.2,5.5-3.7,7.2c-2.5,1.7-6.1,2.5-10.8,2.5H74.4V14h18.1
			c4.5,0,8,0.8,10.3,2.5c2.4,1.7,3.5,3.9,3.5,6.8c0,1.7-0.4,3.2-1.2,4.5c-0.8,1.3-2,2.4-3.5,3.2C103.7,31.6,105.3,32.7,106.4,34.3z
			 M84.4,21.2V28h6.9c3.4,0,5.1-1.1,5.1-3.4c0-2.3-1.7-3.4-5.1-3.4H84.4z M98,38.6c0-2.4-1.8-3.6-5.3-3.6h-8.4v7.2h8.4
			C96.3,42.2,98,41,98,38.6z"/>
		<path class="st1" d="M128.9,40h-5.5v9.4h-10V14h16.2c3.2,0,6,0.5,8.4,1.6c2.4,1.1,4.2,2.6,5.5,4.6c1.3,2,1.9,4.3,1.9,7
			c0,2.6-0.6,4.8-1.8,6.7c-1.2,1.9-2.9,3.4-5.1,4.5l7.6,11.1h-10.7L128.9,40z M133.6,23.2c-1-0.9-2.6-1.4-4.7-1.4h-5.6v10.4h5.6
			c2.1,0,3.6-0.4,4.7-1.3c1-0.9,1.6-2.2,1.6-3.8C135.2,25.4,134.7,24.1,133.6,23.2z"/>
		<path class="st1" d="M186.6,50l-4-3.5c-1.7,1.2-3.5,2.1-5.5,2.7c-2,0.6-4.2,0.9-6.4,0.9c-2.7,0-5.1-0.4-7.2-1.3s-3.8-2.1-5.1-3.6
			c-1.2-1.5-1.8-3.2-1.8-5.1c0-2.2,0.6-4.2,1.8-5.8s3.1-3.2,5.6-4.6c-2.3-2.3-3.4-4.7-3.4-7.1c0-1.8,0.5-3.4,1.5-4.8
			c1-1.4,2.4-2.5,4.2-3.2c1.8-0.8,3.9-1.1,6.3-1.1c3.3,0,5.9,0.8,7.9,2.3c2,1.5,3,3.6,3,6.2c0,1.8-0.5,3.4-1.6,4.9
			c-1.1,1.4-2.7,2.8-5,4l5.2,4.6c0.7-1.5,1.2-3.2,1.6-5.1l7.7,2.3c-0.7,3-1.8,5.7-3.3,8.1l3.7,3.3L186.6,50z M176.8,41.3l-7.6-6.8
			c-1.1,0.7-1.9,1.4-2.4,2.1c-0.5,0.7-0.8,1.5-0.8,2.5c0,1.1,0.5,2,1.5,2.7c1,0.7,2.3,1,3.9,1C173.3,42.8,175.1,42.3,176.8,41.3z
			 M170.1,20.5c-0.6,0.5-0.8,1.1-0.8,1.9c0,0.6,0.2,1.1,0.5,1.6c0.3,0.5,0.9,1.2,1.8,2.1c1.3-0.7,2.3-1.4,2.9-2
			c0.6-0.6,0.8-1.3,0.8-1.9c0-0.7-0.2-1.3-0.7-1.7c-0.5-0.4-1.2-0.6-2.1-0.6C171.4,19.8,170.7,20,170.1,20.5z"/>
		<path class="st1" d="M206.8,49.1c-2.7-0.7-4.9-1.7-6.6-2.8l3.3-7.4c1.6,1,3.4,1.9,5.5,2.5c2.1,0.6,4.2,1,6.2,1
			c3.8,0,5.8-1,5.8-2.9c0-1-0.5-1.8-1.6-2.3c-1.1-0.5-2.9-1-5.3-1.5c-2.7-0.6-4.9-1.2-6.7-1.8c-1.8-0.7-3.3-1.7-4.6-3.2
			c-1.3-1.5-1.9-3.4-1.9-5.9c0-2.2,0.6-4.1,1.8-5.8c1.2-1.7,2.9-3.1,5.3-4.1c2.3-1,5.2-1.5,8.6-1.5c2.3,0,4.6,0.3,6.9,0.8
			c2.3,0.5,4.3,1.3,6,2.3l-3.1,7.4c-3.4-1.8-6.7-2.7-9.8-2.7c-2,0-3.4,0.3-4.4,0.9c-0.9,0.6-1.4,1.4-1.4,2.3c0,0.9,0.5,1.7,1.6,2.1
			c1.1,0.5,2.8,1,5.2,1.5c2.7,0.6,4.9,1.2,6.7,1.8s3.3,1.7,4.6,3.1c1.3,1.4,2,3.4,2,5.8c0,2.1-0.6,4.1-1.8,5.8s-3,3.1-5.3,4.1
			s-5.2,1.5-8.6,1.5C212.2,50.1,209.5,49.8,206.8,49.1z"/>
		<path class="st1" d="M235.4,14h16.8c3.9,0,7.3,0.7,10.3,2.2c3,1.5,5.3,3.5,7,6.2c1.7,2.7,2.5,5.8,2.5,9.4c0,3.6-0.8,6.7-2.5,9.4
			c-1.7,2.7-4,4.7-7,6.2c-3,1.5-6.4,2.2-10.3,2.2h-16.8V14z M251.8,41.4c3,0,5.5-0.9,7.3-2.6c1.8-1.7,2.8-4.1,2.8-7.1
			s-0.9-5.4-2.8-7.1c-1.8-1.7-4.3-2.6-7.3-2.6h-6.3v19.4H251.8z"/>
	</g>
</g>
<g>
	<g class="st0">
		<path class="st1" d="M36.2,83.6c-2.2-1.2-3.9-2.8-5.1-4.8c-1.2-2.1-1.9-4.4-1.9-7c0-2.6,0.6-4.9,1.9-7c1.2-2.1,2.9-3.7,5.1-4.8
			s4.6-1.7,7.3-1.7c2.4,0,4.5,0.4,6.4,1.3s3.5,2.1,4.8,3.6l-4.7,4.2c-1.7-2-3.7-3.1-6.1-3.1c-1.4,0-2.7,0.3-3.8,0.9
			c-1.1,0.6-2,1.5-2.6,2.6c-0.6,1.1-0.9,2.4-0.9,3.9c0,1.5,0.3,2.8,0.9,3.9c0.6,1.1,1.5,2,2.6,2.6c1.1,0.6,2.4,0.9,3.8,0.9
			c2.4,0,4.5-1,6.1-3.1l4.7,4.2C53.5,82,51.9,83.2,50,84s-4.1,1.3-6.4,1.3C40.9,85.3,38.4,84.7,36.2,83.6z"/>
		<path class="st1" d="M62.5,83.6c-2.2-1.2-3.9-2.8-5.2-4.8s-1.9-4.4-1.9-7c0-2.6,0.6-4.9,1.9-7c1.3-2.1,3-3.7,5.2-4.8
			c2.2-1.2,4.7-1.7,7.4-1.7s5.2,0.6,7.4,1.7c2.2,1.2,3.9,2.8,5.2,4.8c1.3,2.1,1.9,4.4,1.9,7c0,2.6-0.6,4.9-1.9,7
			c-1.3,2.1-3,3.7-5.2,4.8c-2.2,1.2-4.7,1.7-7.4,1.7S64.7,84.7,62.5,83.6z M73.5,78.3c1.1-0.6,1.9-1.5,2.5-2.6
			c0.6-1.1,0.9-2.4,0.9-3.9c0-1.5-0.3-2.8-0.9-3.9c-0.6-1.1-1.5-2-2.5-2.6c-1.1-0.6-2.3-0.9-3.6-0.9c-1.3,0-2.5,0.3-3.6,0.9
			c-1.1,0.6-1.9,1.5-2.5,2.6c-0.6,1.1-0.9,2.4-0.9,3.9c0,1.5,0.3,2.8,0.9,3.9c0.6,1.1,1.5,2,2.5,2.6c1.1,0.6,2.3,0.9,3.6,0.9
			C71.2,79.2,72.4,78.9,73.5,78.3z"/>
		<path class="st1" d="M87.5,58.7h7.4v20.2h12.4v5.8H87.5V58.7z"/>
		<path class="st1" d="M110.2,58.7h7.4v20.2H130v5.8h-19.8V58.7z"/>
		<path class="st1" d="M153,79.1v5.7h-20.9v-26h20.4v5.7h-13.1v4.4H151v5.5h-11.6v4.8H153z"/>
		<path class="st1" d="M162,83.6c-2.2-1.2-3.9-2.8-5.1-4.8c-1.2-2.1-1.9-4.4-1.9-7c0-2.6,0.6-4.9,1.9-7c1.2-2.1,2.9-3.7,5.1-4.8
			s4.6-1.7,7.3-1.7c2.4,0,4.5,0.4,6.4,1.3c1.9,0.8,3.5,2.1,4.8,3.6l-4.7,4.2c-1.7-2-3.7-3.1-6.1-3.1c-1.4,0-2.7,0.3-3.8,0.9
			c-1.1,0.6-2,1.5-2.6,2.6c-0.6,1.1-0.9,2.4-0.9,3.9c0,1.5,0.3,2.8,0.9,3.9c0.6,1.1,1.5,2,2.6,2.6c1.1,0.6,2.4,0.9,3.8,0.9
			c2.4,0,4.5-1,6.1-3.1l4.7,4.2c-1.3,1.6-2.9,2.8-4.8,3.6c-1.9,0.8-4.1,1.3-6.4,1.3C166.6,85.3,164.2,84.7,162,83.6z"/>
		<path class="st1" d="M189.9,64.6h-8v-5.8h23.3v5.8h-8v20.2h-7.4V64.6z"/>
		<path class="st1" d="M207.9,58.7h7.4v26h-7.4V58.7z"/>
		<path class="st1" d="M246.9,58.7l-11.2,26h-7.3l-11.1-26h8l7.1,17l7.2-17H246.9z"/>
		<path class="st1" d="M269.3,79.1v5.7h-20.9v-26h20.4v5.7h-13.1v4.4h11.6v5.5h-11.6v4.8H269.3z"/>
	</g>
</g>
</svg>
