<?xml version="1.0" standalone="no"?>
<!DOCTYPE svg PUBLIC "-//W3C//DTD SVG 20010904//EN"
 "http://www.w3.org/TR/2001/REC-SVG-20010904/DTD/svg10.dtd">
<svg version="1.0" xmlns="http://www.w3.org/2000/svg"
 width="700.000000pt" height="700.000000pt" viewBox="0 0 700.000000 700.000000"
 preserveAspectRatio="xMidYMid meet">
<metadata>
Created by potrace 1.14, written by Peter Selinger 2001-2017
</metadata>
<g transform="translate(0.000000,700.000000) scale(0.100000,-0.100000)"
fill="#000000" stroke="none">
<path d="M0 3500 l0 -3500 3500 0 3500 0 0 3500 0 3500 -3500 0 -3500 0 0
-3500z m1990 1408 c228 -524 424 -977 437 -1005 l23 -53 -284 0 -284 0 -64
193 -65 192 -439 3 -440 2 -64 -195 -64 -195 -307 0 -308 0 108 248 c59 136
256 588 437 1004 l329 758 286 0 285 0 414 -952z m1972 937 c305 -46 502 -205
538 -436 13 -89 -1 -161 -55 -275 -48 -104 -96 -156 -180 -200 -30 -16 -55
-31 -54 -34 0 -3 30 -19 67 -37 100 -47 216 -158 258 -246 44 -92 57 -161 52
-273 -3 -81 -8 -100 -41 -167 -91 -184 -280 -286 -586 -317 -58 -5 -363 -10
-697 -10 l-594 0 0 1005 0 1005 598 0 c472 0 617 -3 694 -15z m2053 0 c123
-20 268 -60 340 -94 140 -65 295 -263 353 -451 43 -140 38 -253 -19 -455 l-32
-110 -87 -86 c-49 -47 -118 -108 -154 -135 -37 -26 -64 -54 -62 -60 3 -7 100
-154 215 -328 l211 -316 -329 0 -329 0 -172 280 -172 280 -154 0 -154 0 0
-260 0 -260 -285 0 -285 0 0 1005 0 1005 513 0 c405 0 531 -3 602 -15z m-4652
-2339 c119 -35 200 -78 264 -138 64 -61 98 -129 115 -225 14 -87 1 -188 -36
-268 -47 -101 -173 -233 -318 -330 -38 -25 -68 -49 -67 -53 0 -4 68 -65 150
-135 l149 -128 25 57 c33 74 55 150 55 188 0 65 3 65 195 7 97 -29 192 -57
212 -63 34 -9 35 -11 28 -46 -22 -118 -98 -326 -162 -443 -2 -3 44 -43 102
-89 58 -46 105 -87 105 -91 0 -4 -67 -84 -149 -177 l-148 -170 -108 108 -108
108 -52 -39 c-65 -49 -248 -135 -334 -157 -51 -12 -113 -16 -271 -16 -198 0
-209 1 -322 32 -213 57 -292 99 -423 223 -104 99 -126 147 -132 287 -9 188 53
398 143 486 41 41 170 129 242 165 l44 22 -52 55 c-146 155 -153 391 -16 581
42 58 103 101 191 134 33 13 77 37 97 55 86 76 159 95 348 90 121 -3 160 -8
233 -30z m2377 20 c96 -18 429 -131 452 -154 3 -4 -33 -104 -80 -223 l-87
-217 -50 23 c-67 29 -196 71 -270 87 -36 7 -131 13 -235 13 -175 0 -175 0
-222 -28 -120 -72 -130 -142 -34 -245 17 -19 42 -39 56 -44 47 -19 235 -58
330 -69 189 -20 338 -73 490 -174 228 -152 293 -374 194 -669 l-39 -118 -92
-88 c-125 -120 -203 -173 -288 -198 -234 -68 -393 -73 -711 -24 -226 35 -369
68 -474 109 -76 30 -168 87 -176 108 -5 12 147 415 163 434 2 3 54 -21 116
-52 166 -85 287 -110 517 -111 210 -1 271 13 332 74 32 32 38 44 38 82 0 72
-62 148 -121 148 -53 0 -123 14 -315 65 -94 25 -205 51 -247 59 -88 15 -196
72 -281 147 -42 38 -66 72 -107 155 l-54 106 0 121 c1 114 3 130 38 233 l37
111 93 89 c147 143 202 177 332 207 98 23 181 39 255 51 66 10 372 4 440 -8z
m2022 -41 c187 -24 330 -71 473 -154 105 -60 286 -239 332 -327 81 -153 123
-343 123 -554 0 -219 -41 -396 -132 -574 -95 -186 -312 -339 -593 -421 -168
-48 -270 -55 -846 -55 l-529 0 0 1050 0 1050 529 0 c412 0 555 -3 643 -15z"/>
<path d="M1304 5275 c-4 -11 -63 -157 -130 -325 l-122 -305 255 -3 c141 -1
258 -1 260 2 2 2 -54 149 -126 327 -98 246 -131 319 -137 304z"/>
<path d="M3240 5205 l0 -177 263 4 c243 4 266 6 320 27 80 32 112 74 112 152
0 72 -21 104 -91 139 -48 25 -54 25 -326 28 l-278 4 0 -177z"/>
<path d="M3240 4487 l0 -194 318 -5 c340 -6 358 -4 410 45 38 35 52 72 52 132
0 96 -32 144 -125 187 -48 22 -61 23 -352 26 l-303 3 0 -194z"/>
<path d="M5470 5114 l0 -306 203 4 c181 4 208 7 260 27 74 29 121 70 155 135
23 44 27 63 27 142 0 81 -3 96 -30 149 -19 37 -46 72 -73 92 -71 54 -120 63
-344 63 l-198 0 0 -306z"/>
<path d="M968 3138 c-42 -15 -88 -90 -88 -143 0 -31 5 -48 19 -57 10 -7 21
-22 25 -33 3 -11 23 -40 44 -64 l38 -44 55 35 c29 19 78 60 107 91 l52 56 0
73 c0 44 -5 79 -12 86 -15 15 -200 15 -240 0z"/>
<path d="M813 2224 c-68 -59 -113 -137 -113 -195 1 -78 65 -190 124 -214 94
-40 294 -23 420 34 68 31 69 32 50 50 -118 110 -414 371 -421 371 -4 0 -31
-21 -60 -46z"/>
<path d="M5210 2450 l0 -572 243 5 c275 5 309 11 452 82 72 35 98 54 132 97
111 139 152 314 123 523 -20 139 -131 300 -249 360 -111 56 -184 67 -453 72
l-248 5 0 -572z"/>
</g>
</svg>
